[Header]
FileType HTR
DataType HTRS
FileVersion 1
NumSegments 28
NumFrames 4
DataFrameRate 24
EulerRotationOrder ZYX
CalibrationUnits mm
RotationUnits Degrees
GlobalAxisofGravity Y
BoneLengthAxis Y
ScaleFactor 1.0
[SegmentNames&Hierarchy]
waist	GLOBAL
chest	waist
head	chest
joint2	chest
right_shoulder1	joint2
right_elbow1	right_shoulder1
right_wrist1	right_elbow1
right_hand1	right_wrist1
right_finger3	right_hand1
right_finger4	right_hand1
right_finger5	right_hand1
joint3	chest
right_shoulder2	joint3
right_elbow2	right_shoulder2
right_wrist2	right_elbow2
right_hand2	right_wrist2
right_finger6	right_hand2
right_finger7	right_hand2
right_finger8	right_hand2
Center_pelvis	waist
left_pelvs	Center_pelvis
left_leg	left_pelvs
left_knee	left_leg
left_foot	left_knee
right_pelvis	Center_pelvis
right_leg	right_pelvis
right_knee	right_leg
right_foot	right_knee
[BasePosition]
waist	0	0	0	179.9999991	0	91.33221985	1
chest	0	0	0	-2.307808268e-010	-1.984983424e-008	1.332219854	1
head	0	0	0	180	-1.481061187e-024	90	1
joint2	0	0	0	4.615476202e-010	-1.707085745e-006	90	1
right_shoulder1	0	0	0	1.916575325e-008	-1.983803253e-008	-88.02506599	1
right_elbow1	0	0	0	-180	-1.948815659e-008	-12.92899665	1
right_wrist1	0	0	0	3.256551172e-010	1.942478841e-008	1.920938916	1
right_hand1	0	0	0	136.2194085	85.17676588	-133.4832578	1
right_finger3	0	0	0	154.4596717	79.84057755	147.6247455	1
right_finger4	0	0	0	154.4596717	79.84057755	147.6247455	1
right_finger5	0	0	0	154.4596717	79.84057755	147.6247455	1
joint3	0	0	0	-180	-1.89575832e-022	90	1
right_shoulder2	0	0	0	6.774897105e-015	-7.012540931e-015	-88.02506599	1
right_elbow2	0	0	0	-180	-6.888863384e-015	-12.92899665	1
right_wrist2	0	0	0	-1.240805042e-012	-7.401196581e-011	1.920938916	1
right_hand2	0	0	0	136.2194085	85.17676588	-133.4832578	1
right_finger6	0	0	0	154.4596717	79.84057755	147.6247455	1
right_finger7	0	0	0	154.4596717	79.84057755	147.6247455	1
right_finger8	0	0	0	154.4596717	79.84057755	147.6247455	1
Center_pelvis	0	0	0	-180	-8.537716493e-007	89.87586122	1
left_pelvs	0	0	0	0	0	-1.456358634	1
left_leg	0	0	0	179.9999991	0	88.69804733	1
left_knee	0	0	0	-180	-7.863991589e-009	-2.076172838	1
left_foot	0	0	0	179.9999985	-3.055580289e-010	-90.77422016	1
right_pelvis	0	0	0	0	0	-2.39554958	1
right_leg	0	0	0	0	0	-87.75885638	1
right_knee	0	0	0	179.9999991	3.702652968e-022	-2.076172838	1
right_foot	0	0	0	180	-7.405305937e-025	-90.77422016	1
[waist]
22	0.2494212389	-3.152148962	0	3.82808765e-017	7.103885174	-1.979946926e-016	1.0
23	0.2494212389	-3.152148962	0	-1.872063085e-017	5.538981438	-5.557872196e-017	1.0
24	0.2494212389	-3.152148962	0	4.787440144e-019	4.061766148	2.594756791e-016	1.0
25	0.2494212389	-3.152148962	0	4.890663186e-018	2.759957314	-1.39500331e-016	1.0
[chest]
22	26.90063095	-5.105234635e-008	3.426064014	-27.78003502	9.649896622	-0.354097724	1.0
23	26.90063095	-5.105234635e-008	3.426064014	-24.46759224	9.692242622	-0.3728011847	1.0
24	26.90063095	-5.105234635e-008	3.426064014	-20.67074585	9.732592583	-0.3906229138	1.0
25	26.90063095	-5.105234635e-008	3.426064014	-16.87389946	9.768404961	-0.4064406157	1.0
[head]
22	19.92819023	-0.5489498973	-0.4318157434	4.369934559	-5.047856808	-1.105417371	1.0
23	19.90599823	-0.5706759691	-0.3254301846	3.076376677	-4.204380035	-1.005247593	1.0
24	19.88418198	-0.5920372009	-0.2208309025	1.804538369	-3.375065088	-0.9067597985	1.0
25	19.86298561	-0.6127864718	-0.1192286536	0.5691417456	-2.56951189	-0.8110939264	1.0
[joint2]
22	-1.657010078	17.01290512	0.01287616603	-19.62999153	17.21745872	8.075182915	1.0
23	-1.657010078	17.01290512	0.01287616603	-20.96895981	19.10716629	14.11285686	1.0
24	-1.657010078	17.01290512	0.01287616603	-21.47841263	19.73690033	16.5405674	1.0
25	-1.657010078	17.01290512	0.01287616603	-21.28035927	18.05077934	15.98152733	1.0
[right_shoulder1]
22	14.91590023	0.6211000085	0.9477797747	7.03783083	2.382182598	-30.10604668	1.0
23	14.91590023	0.6211000085	0.9477797747	7.354101658	2.429368258	-28.66399384	1.0
24	14.91590023	0.6211000085	0.9477797747	7.654778481	2.447270393	-26.78848648	1.0
25	14.91590023	0.6211000085	0.9477797747	7.96723175	2.373772383	-23.97999954	1.0
[right_elbow1]
22	-13.64346027	1.083028078	-0.5017899871	-7.494504929	33.86548996	-13.16255093	1.0
23	-13.64346027	1.083028078	-0.5017899871	-8.163267136	37.36038208	-14.45049572	1.0
24	-13.64346027	1.083028078	-0.5017899871	-8.667598724	38.68634796	-15.41571617	1.0
25	-13.64346027	1.083028078	-0.5017899871	-9.046960831	38.44713211	-16.13102722	1.0
[right_wrist1]
22	-11.07325459	0.004849368241	0.6145500541	0	19.69652557	0	1.0
23	-11.07325459	0.004849368241	0.6145500541	0	19.70443916	0	1.0
24	-11.07325459	0.004849368241	0.6145500541	0	19.71476173	0	1.0
25	-11.07325459	0.004849368241	0.6145500541	0	19.72608376	0	1.0
[right_hand1]
22	-8.785093307	0.04701882228	0.1882400364	10.9313612	19.02231979	33.41166306	1.0
23	-8.785093307	0.04701882228	0.1882400364	12.34167099	19.02676964	34.62961578	1.0
24	-8.785093307	0.04701882228	0.1882400364	13.57792473	19.03067398	35.69724655	1.0
25	-8.785093307	0.04701882228	0.1882400364	14.81417084	19.03457642	36.76486969	1.0
[right_finger3]
22	10.07661057	3.347557783	-1.489186764	-83.82539368	20.52288628	88.65804291	1.0
23	10.07661057	3.347557783	-1.489186764	-83.80229187	21.69042397	88.78009796	1.0
24	10.07661057	3.347557783	-1.489186764	-83.78108215	22.76206398	88.89212799	1.0
25	10.07661057	3.347557783	-1.489186764	-83.76068878	23.79265785	88.99986267	1.0
[right_finger4]
22	-1.201135993	3.376283169	11.27149582	-196.443222	8.44675827	94.12115479	1.0
23	-1.201135993	3.376283169	11.27149582	-196.6860352	8.133215904	92.91663361	1.0
24	-1.201135993	3.376283169	11.27149582	-196.908905	7.845425129	91.81105042	1.0
25	-1.201135993	3.376283169	11.27149582	-197.12323	7.568658352	90.74780273	1.0
[right_finger5]
22	-6.853637218	4.493112087	-5.936321735	33.37870789	-4.170514584	91.4274292	1.0
23	-6.853637218	4.493112087	-5.936321735	33.40996552	-4.845579147	92.43149567	1.0
24	-6.853637218	4.493112087	-5.936321735	33.43865204	-5.465195179	93.35308838	1.0
25	-6.853637218	4.493112087	-5.936321735	33.46623993	-6.061079979	94.23937988	1.0
[joint3]
22	-1.657010078	-17.01289368	0.01287565939	-18.62134171	29.75039101	-16.16567802	1.0
23	-1.657010078	-17.01289368	0.01287565939	-18.79645157	32.79256821	-7.490004539	1.0
24	-1.657010078	-17.01289368	0.01287565939	-19.13745308	33.88982391	-2.318541527	1.0
25	-1.657010078	-17.01289368	0.01287565939	-19.9748764	32.4703064	-0.48936975	1.0
[right_shoulder2]
22	-14.91590023	-0.6211000085	-0.9477797747	14.91043186	-29.4589901	-61.41601563	1.0
23	-14.91590023	-0.6211000085	-0.9477797747	13.45429611	-28.74084473	-56.68134308	1.0
24	-14.91590023	-0.6211000085	-0.9477797747	11.88826275	-27.84063911	-50.89255524	1.0
25	-14.91590023	-0.6211000085	-0.9477797747	10.27432156	-26.81905746	-44.41534424	1.0
[right_elbow2]
22	13.64346027	-1.083028078	0.5017899871	4.51767683	25.36132431	-9.199451447	1.0
23	13.64346027	-1.083028078	0.5017899871	4.368213654	24.32261658	-9.606837273	1.0
24	13.64346027	-1.083028078	0.5017899871	4.180859089	23.02057457	-10.11750507	1.0
25	13.64346027	-1.083028078	0.5017899871	3.968243361	21.54298019	-10.69702625	1.0
[right_wrist2]
22	11.07325459	-0.004849368241	-0.6145500541	2.100626469	18.66309929	-6.007276535	1.0
23	11.07325459	-0.004849368241	-0.6145500541	1.914195776	17.8294487	-7.511367321	1.0
24	11.07325459	-0.004849368241	-0.6145500541	1.680500984	16.78444862	-9.396778107	1.0
25	11.07325459	-0.004849368241	-0.6145500541	1.41529727	15.59854984	-11.53639889	1.0
[right_hand2]
22	8.785093307	-0.04701882228	-0.1882400364	15.98856831	22.66649818	32.7234726	1.0
23	8.785093307	-0.04701882228	-0.1882400364	15.4119339	22.8116684	31.98073006	1.0
24	8.785093307	-0.04701882228	-0.1882400364	14.68910694	22.9936409	31.04968262	1.0
25	8.785093307	-0.04701882228	-0.1882400364	13.86882401	23.20014763	29.99310112	1.0
[right_finger6]
22	-10.07661057	-3.347557783	1.489186764	24.38920021	-78.10886383	-27.75110054	1.0
23	-10.07661057	-3.347557783	1.489186764	14.75662422	-72.79216003	-17.77758408	1.0
24	-10.07661057	-3.347557783	1.489186764	2.681977034	-66.12753296	-5.275564671	1.0
25	-10.07661057	-3.347557783	1.489186764	-11.02068996	-58.56432343	8.912099838	1.0
[right_finger7]
22	1.201135993	-3.376283169	-11.27149582	-170.6324615	15.67367268	188.7100983	1.0
23	1.201135993	-3.376283169	-11.27149582	-172.0532837	15.98093128	184.0908966	1.0
24	1.201135993	-3.376283169	-11.27149582	-173.8343353	16.29794502	178.3006592	1.0
25	1.201135993	-3.376283169	-11.27149582	-175.8555145	16.61479378	171.7297058	1.0
[right_finger8]
22	6.853637218	-4.493112087	5.936321735	19.7146225	27.52163506	33.22138214	1.0
23	6.853637218	-4.493112087	5.936321735	20.8430233	26.21485901	36.14160919	1.0
24	6.853637218	-4.493112087	5.936321735	22.25749588	24.57678413	39.80217743	1.0
25	6.853637218	-4.493112087	5.936321735	23.86268044	22.71785164	43.95629883	1.0
[Center_pelvis]
22	-5.616972446	-0.3766000271	2.04698658	-25.78487778	-6.225140572	-11.2407608	1.0
23	-5.616972446	-0.3766000271	2.04698658	-25.83457565	-6.752979755	-10.87938213	1.0
24	-5.616972446	-0.3766000271	2.04698658	-25.8571682	-8.070569038	-10.17564583	1.0
25	-5.616972446	-0.3766000271	2.04698658	-23.75185394	-11.49013805	-7.899873734	1.0
[left_pelvs]
22	11.08986378	-0.01586683653	-0.09214995801	19.96192551	0.7020490766	7.445763588	1.0
23	11.08986378	-0.01586683653	-0.09214995801	17.8795166	0.8399470448	7.146821499	1.0
24	11.08986378	-0.01586683653	-0.09214995801	15.43375492	0.9783682227	6.846745491	1.0
25	11.08986378	-0.01586683653	-0.09214995801	12.78188896	1.113796711	6.553156376	1.0
[left_leg]
22	8.450808053e-008	-5.682914734	0.3641465604	0.05419860035	-33.99184799	-0.1074226946	1.0
23	8.450808053e-008	-5.682914734	0.3641465604	0.04602792859	-35.9600296	-0.09122826904	1.0
24	8.450808053e-008	-5.682914734	0.3641465604	0.03643156961	-37.93568039	-0.07220809907	1.0
25	8.450808053e-008	-5.682914734	0.3641465604	0.02602654137	-39.86861801	-0.05158511922	1.0
[left_knee]
22	-10.97309685	-0.01424117759	0.3803575635	5.925415516	-50.36376572	2.934630394	1.0
23	-11.02723598	-0.0238288939	0.4550682306	9.257307053	-50.67143631	0.7182424068	1.0
24	-11.08157921	-0.03345298767	0.5300623775	12.95560741	-50.96938324	-1.884877563	1.0
25	-11.13474846	-0.04286900908	0.6034350991	16.83170128	-51.25295258	-4.707360268	1.0
[left_foot]
22	-14.54718971	-0.01193539705	1.933258442e-009	-20.34124756	0.8258302212	-0.7604281902	1.0
23	-14.54718971	-0.01193539705	1.933258442e-009	-16.77202797	0.9880415797	-0.9097931385	1.0
24	-14.54718971	-0.01193539705	1.933258442e-009	-13.12955284	1.150868297	-1.059724808	1.0
25	-14.54718971	-0.01193539705	1.933258442e-009	-9.522319794	1.310174823	-1.206414819	1.0
[right_pelvis]
22	-10.5868988	0.4465443194	0.2088862956	10.01839638	-2.387351274	0.3075497448	1.0
23	-10.5868988	0.4465443194	0.2088862956	21.94110489	-4.028655052	0.518990159	1.0
24	-10.5868988	0.4465443194	0.2088862956	27.3605175	-4.774702549	0.6150994897	1.0
25	-10.5868988	0.4465443194	0.2088862956	24.50566673	-4.319407463	-0.259349525	1.0
[right_leg]
22	0.09169664979	-5.593489647	0.06310817599	2.817305565	-5.5220294	-4.466944695	1.0
23	0.09169664979	-5.593489647	0.06310817599	2.753960609	7.317598343	-3.843381882	1.0
24	0.09169664979	-5.593489647	0.06310817599	2.725167513	13.15379238	-3.559944391	1.0
25	0.09169664979	-5.593489647	0.06310817599	4.656006336	10.52456856	-3.683550596	1.0
[right_knee]
22	10.69750977	-0.03459574655	-4.718447855e-015	0	-47.46972275	-6.54753685	1.0
23	10.69750977	-0.03459574655	-4.718447855e-015	0	-48.74403763	-6.54753685	1.0
24	10.69750977	-0.03459574655	-4.718447855e-015	0	-49.1557045	-6.54753685	1.0
25	10.69750977	-0.03459574655	-4.51561311e-015	3.907026529	-45.24677277	-6.333311558	1.0
[right_foot]
22	14.54718685	0.01191107463	1.774880243e-010	-15.50588322	0	0	1.0
23	14.54718685	0.01191107463	1.774880243e-010	-36.04129028	0	0	1.0
24	14.54718685	0.01191107463	1.774880243e-010	-45.37556458	0	0	1.0
25	14.54718685	0.01191107463	1.698582247e-010	-43.44958115	1.596389413	1.96124649	1.0
[EndOfFile]
